<?xml version="1.0" standalone="no"?>
<!DOCTYPE svg PUBLIC "-//W3C//DTD SVG 20010904//EN"
 "http://www.w3.org/TR/2001/REC-SVG-20010904/DTD/svg10.dtd">
<svg version="1.0" xmlns="http://www.w3.org/2000/svg"
 width="405.000000pt" height="405.000000pt" viewBox="0 0 405.000000 405.000000"
 preserveAspectRatio="xMidYMid meet">
<metadata>
Created by potrace 1.15, written by Peter Selinger 2001-2017
</metadata>
<g transform="translate(0.000000,405.000000) scale(0.100000,-0.100000)"
fill="#000000" stroke="none">
<path d="M1934 4021 c-47 -35 -1894 -1885 -1918 -1921 -21 -32 -21 -118 0
-150 27 -41 1907 -1920 1936 -1936 35 -18 111 -18 146 0 33 18 1925 1912 1941
1943 14 28 14 108 0 136 -16 31 -1908 1925 -1941 1943 -15 8 -49 14 -76 14
-38 0 -57 -6 -88 -29z m1064 -993 c519 -519 952 -955 963 -970 18 -25 19 -30
5 -55 -8 -15 -441 -454 -963 -975 -833 -833 -952 -948 -978 -948 -26 0 -146
116 -987 958 -843 842 -958 961 -958 987 0 26 115 145 958 987 841 842 961
958 987 958 26 0 144 -114 973 -942z"/>
<path d="M1634 3070 c-143 -32 -196 -205 -96 -309 55 -58 130 -75 200 -46 49
21 81 52 103 100 21 46 23 75 9 127 -25 89 -125 149 -216 128z"/>
<path d="M2295 3073 c-53 -9 -67 -16 -101 -45 -120 -105 -64 -299 92 -324 53
-8 105 9 151 49 63 56 80 134 44 212 -16 36 -71 95 -89 95 -4 0 -23 4 -42 8
-19 5 -44 6 -55 5z"/>
<path d="M1397 2573 l-117 -46 2 -295 3 -296 77 -41 c43 -23 80 -43 82 -46 3
-2 28 -182 56 -399 28 -217 52 -400 54 -406 7 -18 152 -56 237 -61 l79 -6 0
222 0 221 -40 0 c-27 0 -45 6 -60 22 -18 20 -20 34 -20 194 0 206 5 217 71
160 112 -95 280 -99 380 -9 63 57 69 43 69 -151 0 -189 -5 -203 -73 -208 l-42
-3 -3 -222 -2 -223 52 0 c64 0 168 23 178 39 4 7 19 80 34 164 15 84 32 173
37 198 l10 46 67 6 c61 5 196 44 231 66 11 7 2 97 -59 542 -40 294 -73 535
-74 535 0 1 -32 11 -69 24 l-69 22 -29 -35 c-37 -45 -89 -69 -149 -69 -58 1
-97 19 -136 65 l-29 33 -77 -20 -78 -21 -90 23 c-62 16 -95 20 -103 14 -7 -6
-37 -44 -67 -86 -30 -41 -58 -76 -61 -76 -4 0 -35 38 -70 85 -35 46 -68 84
-74 84 -5 0 -63 -20 -128 -46z m693 -425 c118 -61 113 -227 -8 -280 -65 -29
-122 -18 -172 32 -60 60 -66 139 -16 205 50 65 122 80 196 43z"/>
</g>
</svg>
