<?xml version="1.0" standalone="no"?>
<!DOCTYPE svg PUBLIC "-//W3C//DTD SVG 20010904//EN"
 "http://www.w3.org/TR/2001/REC-SVG-20010904/DTD/svg10.dtd">
<svg version="1.0" xmlns="http://www.w3.org/2000/svg"
 width="199.000000pt" height="198.000000pt" viewBox="0 0 199.000000 198.000000"
 preserveAspectRatio="xMidYMid meet">
<metadata>
Created by potrace 1.15, written by Peter Selinger 2001-2017
</metadata>
<g transform="translate(0.000000,198.000000) scale(0.100000,-0.100000)"
fill="#000000" stroke="none">
<path d="M865 1890 c-416 -65 -723 -400 -760 -830 -13 -150 34 -352 118 -499
53 -94 186 -235 279 -296 242 -160 550 -192 826 -85 255 98 459 330 533 605
31 113 31 326 1 440 -29 109 -109 266 -176 347 -116 140 -296 254 -471 299
-92 23 -262 32 -350 19z m445 -455 c0 -122 11 -118 -111 -38 l-69 44 0 49 0
50 90 0 90 0 0 -105z m-190 -71 c85 -58 197 -134 247 -168 51 -33 93 -64 93
-68 0 -5 -20 -8 -45 -8 l-45 0 0 -260 0 -260 -140 0 -140 0 0 140 0 140 -27
12 c-47 19 -164 22 -206 4 l-37 -15 0 -135 0 -136 -140 0 -140 0 0 259 0 260
-52 3 -53 3 255 167 c140 93 260 168 265 168 6 0 80 -48 165 -106z"/>
</g>
</svg>
