<?xml version="1.0" standalone="no"?>
<!DOCTYPE svg PUBLIC "-//W3C//DTD SVG 20010904//EN"
 "http://www.w3.org/TR/2001/REC-SVG-20010904/DTD/svg10.dtd">
<svg version="1.0" xmlns="http://www.w3.org/2000/svg"
 width="191.000000pt" height="187.000000pt" viewBox="0 0 191.000000 187.000000"
 preserveAspectRatio="xMidYMid meet">
<metadata>
Created by potrace 1.15, written by Peter Selinger 2001-2017
</metadata>
<g transform="translate(0.000000,187.000000) scale(0.100000,-0.100000)"
fill="#000000" stroke="none">
<path d="M212 1844 c-68 -34 -154 -128 -184 -201 l-23 -58 -3 -632 c-3 -619
-2 -633 18 -694 37 -110 107 -190 204 -235 28 -13 69 -24 91 -23 l40 0 -53 15
c-29 7 -67 21 -84 30 -59 30 -134 112 -164 177 l-29 62 -3 623 c-2 541 -1 632
13 685 31 122 121 218 240 256 55 18 57 20 24 20 -19 1 -58 -11 -87 -25z"/>
<path d="M1635 1850 c74 -24 147 -79 192 -144 65 -94 64 -85 61 -792 l-3 -639
-28 -57 c-52 -103 -157 -187 -261 -208 l-41 -8 44 -1 c94 -2 216 92 275 212
l36 72 0 652 0 651 -35 69 c-60 118 -179 214 -264 212 -33 0 -31 -2 24 -19z"/>
<path d="M1209 1787 c-49 -33 -79 -82 -79 -131 0 -148 175 -215 274 -105 48
52 55 105 24 167 -44 89 -143 120 -219 69z"/>
<path d="M1120 1461 c-88 -18 -97 -32 -289 -406 -56 -109 -68 -124 -124 -167
-62 -47 -63 -47 -142 -48 -126 -2 -175 -13 -202 -46 -29 -36 -133 -237 -133
-257 0 -8 7 -20 15 -27 29 -24 58 3 109 99 26 51 50 91 52 89 2 -2 0 -134 -4
-294 -4 -159 -4 -297 0 -306 12 -26 57 -34 87 -17 l26 15 3 192 c1 123 6 191
12 187 6 -4 10 -83 10 -195 0 -177 1 -190 19 -200 27 -14 64 -13 84 3 14 10
17 53 23 337 l7 325 87 69 c47 37 100 74 116 81 23 10 45 43 114 174 l85 161
5 -556 5 -556 28 -24 c36 -31 78 -31 114 0 l28 24 3 336 c2 287 5 336 17 336
13 0 15 -47 15 -329 0 -181 3 -337 6 -346 8 -20 56 -45 87 -45 13 0 36 9 51
21 l26 20 2 566 c2 428 6 567 15 570 9 3 13 -49 15 -205 3 -190 5 -212 22
-231 24 -26 77 -28 99 -3 15 16 17 50 17 267 0 232 -1 252 -21 292 -15 30 -35
52 -67 71 -46 26 -51 27 -217 29 -93 1 -186 -2 -205 -6z"/>
<path d="M494 1070 c-31 -12 -74 -68 -74 -95 0 -86 79 -142 154 -111 44 18 66
52 66 101 0 49 -22 83 -66 101 -38 16 -50 16 -80 4z"/>
</g>
</svg>
